<?xml version="1.0" standalone="no"?><!DOCTYPE svg PUBLIC "-//W3C//DTD SVG 1.1//EN" "http://www.w3.org/Graphics/SVG/1.1/DTD/svg11.dtd"><svg t="1775910602900" class="icon" viewBox="0 0 1399 1024" version="1.1" xmlns="http://www.w3.org/2000/svg" p-id="7454" xmlns:xlink="http://www.w3.org/1999/xlink" width="273.2421875" height="200"><path d="M1006.95 3.977c93.184 0 392.517 217.224 392.517 763.426 0 182.067-84.48 243.507-145.442 243.507-184.781 0-434.79-178.876-551.083-178.876-115.132 0-366.114 178.876-548.181 178.876C98.526 1010.91 0 949.47 0 767.403 0 221.2 305.084 3.977 398.165 3.977c122.812 0 156.945 86.357 304.76 86.357S885.777 3.977 1006.95 3.977z m0 51.2c-33.553 0-57.258 6.929-95.795 25.94l-22.989 11.657c-67.498 34.39-113.595 48.76-185.241 48.76-68.864 0-113.835-13.227-177.289-44.885l-23.21-11.776c-43.281-21.931-67.909-29.696-104.26-29.696-4.506 0-13.313 2.065-24.577 6.656-14.25 5.785-30.549 14.796-47.735 26.709-40.824 28.296-82.552 69.837-120.064 122.163C109.056 345.55 51.2 532.685 51.2 767.42c0 127.061 54.17 192.29 103.543 192.29 47.787 0 106.616-14.763 180.839-43.64l12.39-4.88a2058.581 2058.581 0 0 0 68.864-29.236l95.693-42.632c117.231-51.747 140.237-58.13 185.958-58.47h8.91l8.533 0.136c40.891 1.194 67.89 9.796 178.824 58.658l78.933 35.072c41.387 18.5 72.568 31.71 102.827 43.28 72.14 27.598 129.98 41.712 177.51 41.712 48.129 0 94.243-61.167 94.243-192.307 0-235.008-56.9-422.28-151.962-557.022-36.915-52.327-77.943-93.816-118.135-122.027-16.896-11.861-32.956-20.821-47.02-26.59-11.075-4.54-19.728-6.587-24.2-6.587zM504.081 328.243a17.067 17.067 0 0 1 17.067 17.067l-0.017 110.319h110.336a17.067 17.067 0 0 1 17.066 17.066v35.363a17.067 17.067 0 0 1-17.066 17.066H521.13v110.32a17.067 17.067 0 0 1-17.067 17.066h-35.328a17.067 17.067 0 0 1-17.067-17.067l-0.017-110.336-110.319 0.034a17.067 17.067 0 0 1-17.066-17.066V472.73a17.067 17.067 0 0 1 17.066-17.067h110.32V345.327a17.067 17.067 0 0 1 17.066-17.067h35.362zM897.536 521.49c33.843 0 61.27 28.314 61.27 63.25 0 34.935-27.427 63.248-61.27 63.248s-61.286-28.33-61.286-63.249c0-34.935 27.443-63.249 61.269-63.249z m116.378-180.156c33.843 0 61.286 28.331 61.286 63.25 0 34.935-27.443 63.248-61.27 63.248-33.86 0-61.303-28.313-61.303-63.249 0-34.935 27.443-63.249 61.287-63.249z" p-id="7455"></path></svg>