<?xml version="1.0" standalone="no"?><!DOCTYPE svg PUBLIC "-//W3C//DTD SVG 1.1//EN" "http://www.w3.org/Graphics/SVG/1.1/DTD/svg11.dtd"><svg t="1774921342417" class="icon" viewBox="0 0 1024 1024" version="1.1" xmlns="http://www.w3.org/2000/svg" p-id="27946" xmlns:xlink="http://www.w3.org/1999/xlink" width="200" height="200"><path d="M547.1 889.4L134.3 476.6c-15.8-15.8-3.9-42.9 18.5-41.8l118.6 5.6 311.9-207.9 5.5-92.8c1.2-21.1 26.8-30.8 41.8-15.9l269.3 269.3c14.9 14.9 5.2 40.5-15.9 41.8l-92.8 5.5-207.9 311.9 5.6 118.6c1.1 22.4-25.9 34.3-41.8 18.5z" fill="#000000" p-id="27947"></path><path d="M354.6 470.9c-4 0-7.8-1.9-10.2-5.5-3.8-5.6-2.2-13.2 3.4-17l190-126.7c5.6-3.8 13.2-2.2 17 3.4 3.8 5.6 2.2 13.2-3.4 17l-190 126.7c-2.1 1.4-4.5 2.1-6.8 2.1z" fill="#FFFFFF" p-id="27948"></path><path d="M899.9 393.2l-61.3-61.3c14.9 14.9 5.2 40.5-15.9 41.8l-92.8 5.5L522 691l5.6 118.6c1.1 22.4-26 34.3-41.8 18.5l61.3 61.3c15.8 15.8 42.9 3.9 41.8-18.5l-5.6-118.6 207.9-311.9L884 435c21.1-1.3 30.8-26.9 15.9-41.8z" fill="#000000" p-id="27949"></path><path d="M587.3 307.7m-12.3 0a12.3 12.3 0 1 0 24.6 0 12.3 12.3 0 1 0-24.6 0Z" fill="#FFFFFF" p-id="27950"></path></svg>