<?xml version="1.0" standalone="no"?><!DOCTYPE svg PUBLIC "-//W3C//DTD SVG 1.1//EN" "http://www.w3.org/Graphics/SVG/1.1/DTD/svg11.dtd"><svg t="1776317211651" class="icon" viewBox="0 0 1024 1024" version="1.1" xmlns="http://www.w3.org/2000/svg" p-id="5672" xmlns:xlink="http://www.w3.org/1999/xlink" width="200" height="200"><path d="M195.92326881 828.07673119c-8.98025612-8.98025612-8.98025612-23.54665581 0-32.52691193L404.02479451 587.44829355c8.98025612-8.98025612 23.54665581-8.98025612 32.52691194 0s8.98025612 23.54665581 0 32.52691194L228.45018074 828.07673119c-8.98025612 8.98025612-23.54665581 8.98025612-32.52691193 0z" p-id="5673"></path><path d="M609.01505038 815.20738777L208.79261223 414.98494962c-6.71751442-6.71751442-8.62670273-16.82914139-4.80832611-25.45584412 3.81837662-8.62670273 12.58650071-14.14213562 21.99102089-13.78858223l205.62665197 8.48528137 67.31656557 1.97989899 165.32156544-165.03872273 24.74873734-113.98561313c1.76776695-8.27314934 7.91959595-14.8492424 16.05132393-17.18269478 8.06101731-2.40416306 16.82914139-0.14142136 22.76883836 5.7982756l200.88903653 200.88903654c5.93969696 5.93969696 8.13172798 14.63711037 5.86898629 22.69812767-2.40416306 8.06101731-8.83883476 14.2128463-17.04127343 16.05132394l-113.49063838 25.38513344-166.0993829 164.40232663 1.97989899 67.17514421 8.48528137 205.62665197c0.42426407 9.47523087-5.09116882 18.24335495-13.78858223 21.99102089-8.76812409 3.81837662-18.87975106 1.90918831-25.59726548-4.80832611z m-326.04693681-391.10076067L599.82266222 740.96117575l-6.01040764-146.86607845 0-0.28284272-2.2627417-77.35748186c-0.14142136-6.36396103 2.33345238-12.51579003 6.7882251-16.97056275l177.90806615-176.06958851c3.04055916-3.04055916 7.00035713-5.1618795 11.17228714-6.08111832l79.12524882-17.74838021L725.05127317 158.09305602l-17.18269478 79.40809152c-0.91923882 4.31335137-3.04055916 8.27314934-6.22253968 11.45512986l-177.13024868 176.84740597c-4.45477272 4.45477272-10.60660172 6.92964646-16.89985207 6.71751442L430.18774542 430.18774542l-0.28284272 0-146.93678913-6.08111832z" p-id="5674"></path></svg>