<?xml version="1.0" standalone="no"?><!DOCTYPE svg PUBLIC "-//W3C//DTD SVG 1.1//EN" "http://www.w3.org/Graphics/SVG/1.1/DTD/svg11.dtd"><svg t="1776317306697" class="icon" viewBox="0 0 1024 1024" version="1.1" xmlns="http://www.w3.org/2000/svg" p-id="6863" xmlns:xlink="http://www.w3.org/1999/xlink" width="200" height="200"><path d="M512 1024a512 512 0 1 1 512-512 512 512 0 0 1-512 512z m0-992a480 480 0 1 0 480 480A480 480 0 0 0 512 32z m192 592H528v64h80a16 16 0 0 1 0 32H416a16 16 0 0 1 0-32h80v-64H320a64 64 0 0 1-64-64V368a64 64 0 0 1 64-64h384a64 64 0 0 1 64 64v192a64 64 0 0 1-64 64z m32-256a32 32 0 0 0-32-32H320a32 32 0 0 0-32 32v192a32 32 0 0 0 32 32h384a32 32 0 0 0 32-32V368z" fill="#333333" p-id="6864"></path></svg>