<?xml version="1.0" standalone="no"?><!DOCTYPE svg PUBLIC "-//W3C//DTD SVG 1.1//EN" "http://www.w3.org/Graphics/SVG/1.1/DTD/svg11.dtd"><svg t="1774922596196" class="icon" viewBox="0 0 1024 1024" version="1.1" xmlns="http://www.w3.org/2000/svg" p-id="2004" xmlns:xlink="http://www.w3.org/1999/xlink" width="200" height="200"><path d="M780.544 790.528a422.464 422.464 0 1 0-586.944-607.744 422.464 422.464 0 0 0 586.88 607.744z m44.416 46.08A486.464 486.464 0 1 1 149.12 136.704a486.464 486.464 0 0 1 675.84 699.904z" fill="#000000" p-id="2005"></path><path d="M800.64 844.544a32 32 0 1 1 46.08-44.48l161.92 167.68a32 32 0 0 1-46.08 44.48l-161.92-167.68z" fill="#000000" p-id="2006"></path><path d="M673.024 456.576a32 32 0 1 1 0 64H323.328a32 32 0 0 1 0-64h349.696z" fill="#000000" p-id="2007"></path></svg>